<svg id="visual" viewBox="0 0 900 600" width="900" height="600" xmlns="http://www.w3.org/2000/svg" xmlns:xlink="http://www.w3.org/1999/xlink" version="1.1"><path d="M0 79L13.7 82C27.3 85 54.7 91 82 109C109.3 127 136.7 157 163.8 155C191 153 218 119 245.2 104C272.3 89 299.7 93 327 97C354.3 101 381.7 105 409 123C436.3 141 463.7 173 491 188C518.3 203 545.7 201 573 199C600.3 197 627.7 195 654.8 180C682 165 709 137 736.2 139C763.3 141 790.7 173 818 199C845.3 225 872.7 245 886.3 255L900 265L900 0L886.3 0C872.7 0 845.3 0 818 0C790.7 0 763.3 0 736.2 0C709 0 682 0 654.8 0C627.7 0 600.3 0 573 0C545.7 0 518.3 0 491 0C463.7 0 436.3 0 409 0C381.7 0 354.3 0 327 0C299.7 0 272.3 0 245.2 0C218 0 191 0 163.8 0C136.7 0 109.3 0 82 0C54.7 0 27.3 0 13.7 0L0 0Z" fill="#6198ff"></path><path d="M0 145L13.7 152C27.3 159 54.7 173 82 193C109.3 213 136.7 239 163.8 233C191 227 218 189 245.2 178C272.3 167 299.7 183 327 186C354.3 189 381.7 179 409 191C436.3 203 463.7 237 491 249C518.3 261 545.7 251 573 248C600.3 245 627.7 249 654.8 240C682 231 709 209 736.2 213C763.3 217 790.7 247 818 274C845.3 301 872.7 325 886.3 337L900 349L900 263L886.3 253C872.7 243 845.3 223 818 197C790.7 171 763.3 139 736.2 137C709 135 682 163 654.8 178C627.7 193 600.3 195 573 197C545.7 199 518.3 201 491 186C463.7 171 436.3 139 409 121C381.7 103 354.3 99 327 95C299.7 91 272.3 87 245.2 102C218 117 191 151 163.8 153C136.7 155 109.3 125 82 107C54.7 89 27.3 83 13.7 80L0 77Z" fill="#3c80ff"></path><path d="M0 355L13.7 374C27.3 393 54.7 431 82 431C109.3 431 136.7 393 163.8 375C191 357 218 359 245.2 372C272.3 385 299.7 409 327 416C354.3 423 381.7 413 409 412C436.3 411 463.7 419 491 420C518.3 421 545.7 415 573 419C600.3 423 627.7 437 654.8 440C682 443 709 435 736.2 423C763.3 411 790.7 395 818 400C845.3 405 872.7 431 886.3 444L900 457L900 347L886.3 335C872.7 323 845.3 299 818 272C790.7 245 763.3 215 736.2 211C709 207 682 229 654.8 238C627.7 247 600.3 243 573 246C545.7 249 518.3 259 491 247C463.7 235 436.3 201 409 189C381.7 177 354.3 187 327 184C299.7 181 272.3 165 245.2 176C218 187 191 225 163.8 231C136.7 237 109.3 211 82 191C54.7 171 27.3 157 13.7 150L0 143Z" fill="#0066ff"></path><path d="M0 451L13.7 466C27.3 481 54.7 511 82 512C109.3 513 136.7 485 163.8 470C191 455 218 453 245.2 461C272.3 469 299.7 487 327 493C354.3 499 381.7 493 409 491C436.3 489 463.7 491 491 489C518.3 487 545.7 481 573 489C600.3 497 627.7 519 654.8 521C682 523 709 505 736.2 491C763.3 477 790.7 467 818 470C845.3 473 872.7 489 886.3 497L900 505L900 455L886.3 442C872.7 429 845.3 403 818 398C790.7 393 763.3 409 736.2 421C709 433 682 441 654.8 438C627.7 435 600.3 421 573 417C545.7 413 518.3 419 491 418C463.7 417 436.3 409 409 410C381.7 411 354.3 421 327 414C299.7 407 272.3 383 245.2 370C218 357 191 355 163.8 373C136.7 391 109.3 429 82 429C54.7 429 27.3 391 13.7 372L0 353Z" fill="#0059dd"></path><path d="M0 601L13.7 601C27.3 601 54.7 601 82 601C109.3 601 136.7 601 163.8 601C191 601 218 601 245.2 601C272.3 601 299.7 601 327 601C354.3 601 381.7 601 409 601C436.3 601 463.7 601 491 601C518.3 601 545.7 601 573 601C600.3 601 627.7 601 654.8 601C682 601 709 601 736.2 601C763.3 601 790.7 601 818 601C845.3 601 872.7 601 886.3 601L900 601L900 503L886.3 495C872.7 487 845.3 471 818 468C790.7 465 763.3 475 736.2 489C709 503 682 521 654.8 519C627.7 517 600.3 495 573 487C545.7 479 518.3 485 491 487C463.7 489 436.3 487 409 489C381.7 491 354.3 497 327 491C299.7 485 272.3 467 245.2 459C218 451 191 453 163.8 468C136.7 483 109.3 511 82 510C54.7 509 27.3 479 13.7 464L0 449Z" fill="#004cbb"></path></svg>